<svg width="170" height="41" viewBox="0 0 170 41" fill="none" xmlns="http://www.w3.org/2000/svg">
<g clip-path="url(#clip0_4_1567)">
<g clip-path="url(#clip1_4_1567)">
<path fill-rule="evenodd" clip-rule="evenodd" d="M10.3245 3.70801V41.208H0.309692V3.70801H10.3245Z" fill="#443FDE"/>
<path fill-rule="evenodd" clip-rule="evenodd" d="M15.3319 3.70801H36.6134C43.5272 3.70801 49.1319 9.30445 49.1319 16.208C49.1319 23.1116 43.5272 28.708 36.6134 28.708H25.3467V41.208H15.3319V3.70801ZM25.3467 18.708H36.6134C37.9962 18.708 39.1171 17.5887 39.1171 16.208C39.1171 14.8273 37.9962 13.708 36.6134 13.708H25.3467V18.708Z" fill="#443FDE"/>
<path fill-rule="evenodd" clip-rule="evenodd" d="M86.6875 3.70801V23.083C86.6875 27.5703 90.3305 31.208 94.8245 31.208C99.3185 31.208 102.962 27.5703 102.962 23.083V3.70801H112.977V23.083C112.977 33.0932 104.85 41.208 94.8245 41.208C84.7995 41.208 76.6727 33.0932 76.6727 23.083V3.70801H86.6875Z" fill="#443FDE"/>
<path fill-rule="evenodd" clip-rule="evenodd" d="M52.8875 21.208C52.8875 11.543 60.7341 3.70801 70.4134 3.70801H72.9171V13.708H70.4134C66.2651 13.708 62.9023 17.0659 62.9023 21.208V22.458C62.9023 32.8133 54.4952 41.208 44.1245 41.208H42.8727V31.208H44.1245C48.9642 31.208 52.8875 27.2905 52.8875 22.458V21.208Z" fill="#443FDE"/>
<path d="M169.31 4.95801C169.31 7.02908 167.629 8.70801 165.554 8.70801C163.48 8.70801 161.799 7.02908 161.799 4.95801C161.799 2.88694 163.48 1.20801 165.554 1.20801C167.629 1.20801 169.31 2.88694 169.31 4.95801Z" fill="#443FDE"/>
<path d="M123.73 41.2079L128.509 21.226L132.062 33.2472C134.18 40.417 144.351 40.417 146.47 33.2472L150.022 21.226L154.801 41.2079H165.097L157.583 9.78738C155.796 2.31533 145.251 2.03867 143.073 9.4068L139.266 22.2912L135.458 9.40681C133.281 2.03872 122.735 2.31529 120.948 9.78737L113.434 41.2079H123.73Z" fill="#443FDE"/>
</g>
</g>
<defs>
<clipPath id="clip0_4_1567">
<rect width="169" height="40" fill="white" transform="translate(0.5 0.370117)"/>
</clipPath>
<clipPath id="clip1_4_1567">
<rect width="169" height="40" fill="white" transform="translate(0.5 0.370117)"/>
</clipPath>
</defs>
</svg>
